<svg width="28" height="28" viewBox="0 0 28 28" fill="none" xmlns="http://www.w3.org/2000/svg">
<path d="M22.75 14H5.25C4.32174 14 3.4315 14.3687 2.77513 15.0251C2.11875 15.6815 1.75 16.5717 1.75 17.5V19.25C1.75 19.4821 1.84219 19.7046 2.00628 19.8687C2.17038 20.0328 2.39294 20.125 2.625 20.125H3.5V21C3.5 21.4641 3.68437 21.9092 4.01256 22.2374C4.34075 22.5656 4.78587 22.75 5.25 22.75C5.71413 22.75 6.15925 22.5656 6.48744 22.2374C6.81563 21.9092 7 21.4641 7 21V20.125H21V21C21 21.4641 21.1844 21.9092 21.5126 22.2374C21.8408 22.5656 22.2859 22.75 22.75 22.75C23.2141 22.75 23.6592 22.5656 23.9874 22.2374C24.3156 21.9092 24.5 21.4641 24.5 21V20.125H25.375C25.6071 20.125 25.8296 20.0328 25.9937 19.8687C26.1578 19.7046 26.25 19.4821 26.25 19.25V17.5C26.25 16.5717 25.8813 15.6815 25.2249 15.0251C24.5685 14.3687 23.6783 14 22.75 14ZM7.875 8.75H12.25C12.4821 8.75 12.7046 8.84219 12.8687 9.00628C13.0328 9.17038 13.125 9.39294 13.125 9.625C13.125 9.85706 13.0328 10.0796 12.8687 10.2437C12.7046 10.4078 12.4821 10.5 12.25 10.5H7.875C7.64294 10.5 7.42038 10.4078 7.25628 10.2437C7.09219 10.0796 7 9.85706 7 9.625C7 9.39294 7.09219 9.17038 7.25628 9.00628C7.42038 8.84219 7.64294 8.75 7.875 8.75ZM15.75 8.75H20.125C20.3571 8.75 20.5796 8.84219 20.7437 9.00628C20.9078 9.17038 21 9.39294 21 9.625C21 9.85706 20.9078 10.0796 20.7437 10.2437C20.5796 10.4078 20.3571 10.5 20.125 10.5H15.75C15.5179 10.5 15.2954 10.4078 15.1313 10.2437C14.9672 10.0796 14.875 9.85706 14.875 9.625C14.875 9.39294 14.9672 9.17038 15.1313 9.00628C15.2954 8.84219 15.5179 8.75 15.75 8.75ZM6.13287 12.25H21.8671C22.3554 12.25 22.75 11.8554 22.75 11.3671V7C22.75 6.53587 22.5656 6.09075 22.2374 5.76256C21.9092 5.43437 21.4641 5.25 21 5.25H7C6.53587 5.25 6.09075 5.43437 5.76256 5.76256C5.43437 6.09075 5.25 6.53587 5.25 7V11.3671C5.25 11.8554 5.64462 12.25 6.13287 12.25Z" fill="white"/>
</svg>
