<svg width="21" height="21" viewBox="0 0 21 21" fill="none" xmlns="http://www.w3.org/2000/svg">
<g clip-path="url(#clip0_418_3903)">
<path d="M12.2245 3.86523C13.851 2.38636 15.9573 2.14703 17.5478 3.10352C19.167 4.07787 20.0413 6.1283 19.6278 8.13379L19.5839 8.32812C19.0968 10.2905 17.9052 11.8756 16.4569 13.4424C14.7503 15.2886 12.7723 16.8465 10.6972 18.3574C8.03192 16.4085 5.52171 14.4226 3.59756 11.8555L3.20987 11.3184C2.30807 10.0227 1.68925 8.71317 1.66006 7.23633C1.62157 5.28791 2.72312 3.54758 4.30655 2.86426V2.86328C5.78743 2.22397 7.61294 2.53372 9.01553 3.73145L9.28995 3.98242C9.57085 4.25784 9.85976 4.53551 10.1825 4.84863L10.7499 5.39844L11.2968 4.82812C11.664 4.44501 11.9068 4.153 12.2235 3.86523H12.2245Z" fill="#FE0135" stroke="#FE0135" stroke-width="1.57143"/>
</g>
<defs>
<clipPath id="clip0_418_3903">
<rect width="20.9524" height="20.9524" fill="white"/>
</clipPath>
</defs>
</svg>
