<svg width="28" height="28" viewBox="0 0 28 28" fill="none" xmlns="http://www.w3.org/2000/svg">
<path d="M24.5 15.1665V18.6665C24.5 19.9042 24.0083 21.0912 23.1332 21.9663C22.258 22.8415 21.071 23.3332 19.8333 23.3332H8.16667C6.92899 23.3332 5.742 22.8415 4.86683 21.9663C3.99167 21.0912 3.5 19.9042 3.5 18.6665V15.8665C3.5 15.6809 3.57375 15.5028 3.70503 15.3715C3.8363 15.2403 4.01435 15.1665 4.2 15.1665H24.5Z" fill="white" stroke="white" stroke-width="1.5" stroke-linecap="round" stroke-linejoin="round"/>
<path d="M18.6667 23.3333L19.8333 25.6667M9.33333 23.3333L8.16667 25.6667M24.5 15.1667V8.16667C24.5 6.92899 24.0083 5.742 23.1332 4.86683C22.258 3.99167 21.071 3.5 19.8333 3.5H14" stroke="white" stroke-width="1.5" stroke-linecap="round" stroke-linejoin="round"/>
<path d="M17.9667 9.33333H10.0333C9.64717 9.33333 9.338 9.02067 9.38 8.63567C9.55033 7.0875 10.3402 3.5 14 3.5C17.6598 3.5 18.4497 7.0875 18.62 8.63567C18.662 9.02067 18.3528 9.33333 17.9667 9.33333Z" fill="white" stroke="white" stroke-width="1.5" stroke-linecap="round" stroke-linejoin="round"/>
</svg>
