<svg width="21" height="21" viewBox="0 0 21 21" fill="none" xmlns="http://www.w3.org/2000/svg">
<mask id="path-1-inside-1_418_3901" fill="white">
<path d="M10.4765 0.873047C15.7801 0.873231 20.0791 5.17299 20.0791 10.4766C20.079 12.2724 19.5845 13.952 18.7265 15.3896L19.9463 19.9404L15.3994 18.7217C13.9597 19.5831 12.2763 20.079 10.4765 20.0791C5.17296 20.0791 0.873201 15.7801 0.873016 10.4766C0.873016 5.17288 5.17285 0.873047 10.4765 0.873047Z"/>
</mask>
<path d="M10.4765 0.873047L10.4766 -0.698382H10.4765V0.873047ZM20.0791 10.4766L21.6505 10.4766V10.4766H20.0791ZM18.7265 15.3896L17.3772 14.5843C17.1595 14.949 17.0987 15.3863 17.2087 15.7965L18.7265 15.3896ZM19.9463 19.9404L19.5394 21.4583C20.0817 21.6036 20.6604 21.4486 21.0574 21.0516C21.4544 20.6546 21.6095 20.0759 21.4641 19.5336L19.9463 19.9404ZM15.3994 18.7217L15.8062 17.2038C15.3954 17.0937 14.9575 17.1548 14.5925 17.3732L15.3994 18.7217ZM10.4765 20.0791V21.6505H10.4766L10.4765 20.0791ZM0.873016 10.4766H-0.698412V10.4766L0.873016 10.4766ZM10.4765 0.873047L10.4765 2.44448C14.912 2.44463 18.5076 6.04071 18.5076 10.4766H20.0791H21.6505C21.6505 4.30527 16.6481 -0.698167 10.4766 -0.698382L10.4765 0.873047ZM20.0791 10.4766L18.5076 10.4765C18.5076 11.98 18.0944 13.3825 17.3772 14.5843L18.7265 15.3896L20.0759 16.195C21.0746 14.5216 21.6504 12.5648 21.6505 10.4766L20.0791 10.4766ZM18.7265 15.3896L17.2087 15.7965L18.4284 20.3473L19.9463 19.9404L21.4641 19.5336L20.2444 14.9828L18.7265 15.3896ZM19.9463 19.9404L20.3531 18.4226L15.8062 17.2038L15.3994 18.7217L14.9925 20.2395L19.5394 21.4583L19.9463 19.9404ZM15.3994 18.7217L14.5925 17.3732C13.3894 18.0931 11.9837 18.5076 10.4765 18.5077L10.4765 20.0791L10.4766 21.6505C12.5688 21.6505 14.53 21.0731 16.2063 20.0701L15.3994 18.7217ZM10.4765 20.0791V18.5077C6.04068 18.5077 2.4446 14.9121 2.44444 10.4765L0.873016 10.4766L-0.698412 10.4766C-0.698197 16.6481 4.30524 21.6505 10.4765 21.6505V20.0791ZM0.873016 10.4766H2.44444C2.44444 6.04075 6.04072 2.44448 10.4765 2.44448V0.873047V-0.698382C4.30497 -0.698382 -0.698412 4.305 -0.698412 10.4766H0.873016Z" fill="white" mask="url(#path-1-inside-1_418_3901)"/>
</svg>
